<?xml version="1.0" encoding="UTF-8"?><svg xmlns="http://www.w3.org/2000/svg" xmlns:xlink="http://www.w3.org/1999/xlink" viewBox="0 0 164.2 146.09"><defs><style>.cls-1{fill:#5a5957;}.cls-2{fill:#fff;}.cls-3{fill:#353333;}.cls-4{fill:#1e1e1d;}.cls-5{fill:#2e2c2c;}.cls-6{fill:#605f5e;}.cls-7{fill:#454443;}.cls-8{fill:#393838;}.cls-9{fill:#1b1a1a;}.cls-10{fill:#646362;}.cls-11{fill:#3c3b3a;}.cls-12{fill:#252324;}.cls-13{fill:#5e5d5b;}.cls-14{fill:#3f3e3d;}.cls-15{fill:#413f3f;}.cls-16{fill:#383636;}.cls-17{fill:#4f4d4c;}.cls-18{fill:#696866;}.cls-19{fill:#6a6967;}.cls-20{fill:#504f4d;}.cls-21{isolation:isolate;}.cls-22{fill:#4b4a49;}.cls-23{fill:#464544;}.cls-24{fill:#646361;}.cls-25{fill:#363738;}.cls-26{fill:#5f5e5c;}.cls-27{fill:#5d5c5a;}.cls-28{fill:#0d0c0c;}.cls-29{fill:#3b3939;}.cls-30{fill:#525150;}.cls-31{fill:#565554;}.cls-32{fill:#151314;}.cls-33{fill:#080505;}.cls-34{fill:#1f1e1e;}.cls-35{fill:#575654;}.cls-36{fill:#4a4948;}.cls-37{fill:#272525;}.cls-38{fill:#3e3c3c;}.cls-39{fill:#424140;}.cls-40{fill:#444241;}.cls-41{fill:#5b5958;}.cls-42{fill:#555453;}.cls-43{opacity:.52;}.cls-43,.cls-44{mix-blend-mode:overlay;}.cls-45{fill:#333131;}.cls-46{fill:#676564;}.cls-47{fill:#100a08;}.cls-48{fill:#4e4c4b;}.cls-49{fill:#5b5a59;}.cls-50{clip-path:url(#clippath);}.cls-51{fill:#212020;}.cls-52{fill:#676664;}.cls-53{fill:#666563;}.cls-54{fill:#484645;}.cls-55{fill:none;}.cls-56{fill:#5e5d5c;}.cls-57{fill:#535251;}.cls-58{fill:#363534;}.cls-59{fill:#636261;}.cls-60{fill:#62615f;}.cls-61{fill:#2c2b2b;}.cls-62{fill:#2b2929;}.cls-63{fill:#545352;}.cls-64{fill:#595856;}.cls-65{fill:#636260;}.cls-66{fill:#191818;}.cls-67{fill:#6e7e89;}.cls-68{fill:#61605e;}.cls-69{fill:#1d1c1c;}.cls-70{fill:#131112;}.cls-71{fill:#494747;}.cls-72{fill:#232122;}.cls-73{fill:#605f5d;}.cls-74{fill:#656462;}.cls-75{fill:#0f0d0e;}.cls-76{fill:#171616;}.cls-77{fill:#292727;}.cls-78{mix-blend-mode:multiply;}.cls-79{fill:#585755;}.cls-80{fill:#110f10;}.cls-81{fill:#1d1d1b;}.cls-82{fill:#4c4b4a;}.cls-83{fill:#161214;}.cls-84{fill:#51504f;}.cls-85{fill:#5c5b59;}.cls-86{fill:#302e2e;}.cls-87{fill:#686765;}.cls-88{fill:#313030;}</style><clipPath id="clippath"><path class="cls-55" d="M160.21,67.61s5.03-1.74-.97-4.26-19.52-6.52-29.25-9.53-25.99-5.81-43.12,1.06c-15.11,6.06-16.66,10.21-19.95,11.56-3.29,1.35-14.79-16.56-14.79-16.56,0,0,0,9.91,2.4,15.01,1.94,2.39,1.55,7.74,7.74,7.74s24.73-7.94,44.88-7.74,53.05,2.71,53.05,2.71Z"/></clipPath></defs><g class="cls-21"><g id="Layer_2"><g id="Layer_2-2"><g><path class="cls-4" d="M43.65,41.09c-7.77,8.23-12.22,16.27-16.16,19.55l-4.5,60.23,7.26,6.16,33.9,15.61,51.56-1.19,9.31-42.52c6.96,0,12.61-3.79,12.61-8.47l1.17-24.73,20.93,2.03c2.48,0,4.48-2.01,4.48-4.48l-6.15-11.98c-2.38-4.64-5.69-8.74-9.73-12.05-4.02-3.3-8.57-7.09-11.97-10.84l-4.11-8.06C124.54,7.13,111.64,2.58,98.52,.31l-21.92,2.61c-2.17,.26-4.28,.94-6.18,2.03-11.03,6.33-19.7,19.83-26.77,36.14"/><path class="cls-4" d="M43.63,41.66c-7.77,8.23-12.22,16.27-16.16,19.55l-3.5,60.58,72.2,22.88c6.96,0,37.8-47.63,41.43-53.64l1.17-24.73,20.93,2.03c2.48,0,4.48-2.01,4.48-4.48l-6.15-11.98c-2.38-4.64-5.69-8.74-9.73-12.05-4.02-3.3-8.57-7.09-11.97-10.84l-4.11-8.06C124.52,7.7,111.63,3.15,98.51,.87l-21.92,2.61c-2.17,.26-4.28,.94-6.18,2.03-11.03,6.33-19.7,19.83-26.77,36.14"/><polygon class="cls-2" points="13.17 97.03 33.3 70.84 23.93 83.03 13.17 97.03"/><polygon class="cls-2" points="66.09 119.27 66.06 119.38 66.08 119.35 66.09 119.27"/><path class="cls-33" d="M131.63,110.71l-.52-11.61-2.32-8.13,.9-4.13,2.71-1.81,.9-6.45,2.19-1.81v-11.62l-8.65-4.38-1.42,8.65-3.74,5.94v4.26l-4.52,11.61,1.16,11.48-1.16,2.58v4.52l-1.73,9.24-.98,7.66,1.24,14.74c5.87-1.93,11.48-4.43,16.77-7.44l-1.75-13.75,.9-9.55Z"/><path class="cls-28" d="M86.63,146.09c10.16,0,19.93-1.64,29.08-4.65l-1.24-14.74-8.19-4.65v-8.84l3.1-6.65-1.29-20.19,3.61-8.97,4.87-4.45-1.26-1.85-7.68-.27-2.42-1.22v9.87l1.58,1.42v2.32l-2.65,2.9-.52,6-1.1,2-1.1,19.1-.77,1.29v2.32h-1.74l-2.26,8.26-1.48,15.48-11.17-6.46-7.44,4.92-1.92,6.29c3.92,.5,7.92,.77,11.98,.77Z"/><path class="cls-83" d="M66.09,119.27v.08s-.03,.03-.03,.03l-.5,2.16-2.84,6.71-4,8.39-1.51,4.69c5.59,1.87,11.43,3.22,17.44,3.99l2.4-6.29-.87-3.23,9.19-24.19,1.26-11.23-.97-5.32-7.84-11.23-2.62-7.18-6.8,5.92,1.55,10.06-1.55,9.52-.87,6.45,.2,3.59-1.64,7.07Z"/><path class="cls-4" d="M42.85,131.48l-1.97,2.58c4.92,2.79,10.13,5.15,15.56,7.01l.74-2.75,3.61-8.52,5.28-10.42,.03-.11,1.44-10.66-.29-5.26-1.03-2.06-12.39,2.97-1.94,3.61-.52,6.07-8.52,17.54Z"/><path class="cls-83" d="M62.72,128.26l2.84-6.71,.5-2.16-5.28,10.42-3.61,8.52-.74,2.75c.26,.09,.52,.18,.77,.26l1.51-4.69,4-8.39Z"/><polygon class="cls-83" points="67.73 112.2 67.53 108.61 66.09 119.27 67.73 112.2"/><path class="cls-4" d="M42.85,131.48l8.52-17.54,.52-6.07-1.94-9.68-1.94-9.09v.7l-1.03-5.55-9.52,13.03-5.32,10.74-1.84,17.32-.06,1.67c3.37,2.58,6.93,4.94,10.64,7.04l1.97-2.58Z"/><path class="cls-4" d="M31.41,114.96l.74-6.93,5.32-10.74,9.52-13.03,1.03,4.85v-8.33l3.23-5.42,4-2.97h2.9v-2.06l-3.94-7.36-5.16-12.65-3.35-3.87-3.74,7.48-8.65,16.9-20.13,26.19-2.97,9c3.73,5.39,8.02,10.36,12.77,14.83l2.45-2.09,5.97-3.82Z"/><polygon class="cls-4" points="48.01 89.81 48.01 89.11 46.98 84.26 48.01 89.81"/><path class="cls-67" d="M8.14,91.68l13.94-20.06,21.86-27.96,1.36-2.17,2.65-8.97-5.84,10.19-22.55,25.94-5.42,2.71L0,86.82c1.13,2.91,2.4,5.74,3.8,8.5l4.34-3.65Z"/><path class="cls-67" d="M8.14,91.68l-4.34,3.65c1.67,3.27,3.53,6.43,5.56,9.47l3.81-7.76,10.76-14,9.37-12.19,12.39-24.39-.4-4.97-23.22,30.13-13.94,20.06Z"/><polygon class="cls-25" points="41.95 53.94 45.69 46.45 33.3 70.84 41.95 53.94"/><path class="cls-25" d="M10.21,106.03l2.97-9-3.81,7.76c.28,.42,.56,.83,.85,1.24Z"/><polygon class="cls-4" points="62.29 12.39 53.42 22.19 48.71 32.52 47.23 38.13 45.29 41.48 51.42 51.03 57.16 60.77 64.46 59.1 79.36 28.39 91.76 12.65 74.46 5.48 62.29 12.39"/><polygon class="cls-4" points="87.14 14 80.13 17.81 77.94 23.1 71.75 25.29 68.39 30.32 63.23 35.48 62.29 41.29 60.13 45.42 60.91 50.45 60.13 54.58 58.58 57.91 56 58.35 61.04 60.52 66.58 66.06 82.71 52.9 95.1 41.48 107.62 38.97 118.07 41.48 135.36 46.77 160.26 64.26 160.26 62.94 159.49 61.48 158.23 61.48 157.65 56.06 155.45 54.84 149.13 45.94 125.9 30.84 87.14 14"/><g class="cls-43"><path class="cls-28" d="M130.26,27.5c3.94,4.45,4.71,5.68,11.1,9.75,6.39,4.06,18.97,19.94,18.97,19.94,0,0-.1-2.13-4.06-9.19-2.91-5.18-10.14-9.92-18.87-18.41-2.96-2.88-3.48-7.18-6.41-11.33-7.98-11.31-8.31-11.8-8.31-11.8,0,0-9.64-3.58-8.07-1.45,1.59,2.16,10.5,15.95,11.82,17.82l3.84,4.68Z"/></g><ellipse class="cls-2" cx="71.3" cy="31.67" rx="21.55" ry="11.86" transform="translate(33.33 99.83) rotate(-84.82)"/><ellipse class="cls-81" cx="71.3" cy="31.67" rx="16.73" ry="9.21" transform="translate(33.33 99.83) rotate(-84.82)"/><path class="cls-33" d="M122.01,76.6s5.17,4.9,5.8,6.98c.63,2.08-.15,7.16,1.45,10.11s2.27,4.02,2.27,4.02c0,0-3.09,1.12-5.37,1.18s-8.48,.2-8.48,.2c0,0,1.01-1.76,.59-4.96-.43-3.2,.62-5.84,.62-5.84,0,0,1.19-2.37,.89-3.4-.3-1.03-.21-1.24-.21-1.24l2.44-7.04Z"/><path class="cls-33" d="M123.84,70.9s3.34-.33,14.13,11.72c-.13,2.66-.34,7.6-.34,7.6,0,0-.64,2.93-1.37,6.15-2.13,2.47-5.02,5.81-5.02,5.81,0,0-3.04-8.13-3.25-12.1s.82-6.38-2.65-9.48c-3.46-3.1-3.34-3.98-3.34-3.98l1.83-5.7Z"/><path class="cls-4" d="M52.13,49.7s0,10.84,0,18.13c-1.78,6.79-3.91,15.16-4.26,18.84,1.22,6.01,1.74,10.6,2.69,14.62-6.75,.15-17.66,6.74-17.66,6.74,0,0,3.68-14.51,5.74-22.06,2.75-6.74,5.27-13.58,6.52-16.33,.88-2.32,2.06-5.48,3.35-8.58,1.29-3.1,3.61-11.35,3.61-11.35Z"/><path class="cls-47" d="M108.46,81.83s-2.65,.77-3.55,5.29c-.9,4.52-2.23,5.29-1.5,7.23s-.21,5.06-.21,5.06l14.48-.32s.65-2.42,.65-3.84-.65-5.03,.77-7.35,.32-3.92,.38-4.05-11.02-2.01-11.02-2.01Z"/><path class="cls-83" d="M68.94,86.51s.4,10.52,.55,14.55c34.68-.76,33.38-1.11,33.38-1.11,0,0,.71-3.23,.37-4.5s-.62-1.89,.26-3.98,.85-7.29,4.63-9.09c-.71-4.26-5.49-13.93-11.81-13.61s-25.53,6.77-27.39,8.58c-.6,.48-1.01,1.62-1.05,2.18s-.15,3.36,1.06,6.99Z"/><g class="cls-78"><path class="cls-28" d="M52.13,49.7s-.29,4.06,6,9.58c6.29,5.52,3.48,12.77,11.03,7.94,7.55-4.84,9.77-9.39,17.13-7.26s31.84-5.13,42.29-2.52c10.45,2.61,16.25,8.88,16.25,8.88,0,0-5.41-.45-6.14,1.29s-.73,15.38-.73,15.38c0,0-9.1-10.94-14.13-12.1-1.26,3.39-3.97,13.74-5.52,14.81s-9.58-1.26-9.87-3.87-4.81-14.61-12.61-13.55-26.29,7.65-27.35,9.68,.77,8.01,.77,8.01c0,0-6.68-7.04-7.06-8.39s-2.66-6.74-5.57-9.74c-2.9-3-4.01-7.87-4.5-18.13Z"/></g><g class="cls-44"><g class="cls-50"><polygon class="cls-75" points="52.13 69.15 165.24 67.25 165.24 72.65 52.13 72.65 52.13 69.15"/><polygon class="cls-75" points="52.13 68.91 165.24 67.01 165.24 67.25 52.13 69.15 52.13 68.91"/><polygon class="cls-80" points="52.13 68.66 165.24 66.77 165.24 67.01 52.13 68.91 52.13 68.66"/><polygon class="cls-70" points="52.13 68.42 165.24 66.53 165.24 66.77 52.13 68.66 52.13 68.42"/><polygon class="cls-32" points="52.13 68.18 165.24 66.28 165.24 66.53 52.13 68.42 52.13 68.18"/><polygon class="cls-76" points="52.13 67.94 165.24 66.04 165.24 66.28 52.13 68.18 52.13 67.94"/><polygon class="cls-66" points="52.13 67.69 165.24 65.8 165.24 66.04 52.13 67.94 52.13 67.69"/><polygon class="cls-9" points="52.13 67.45 165.24 65.56 165.24 65.8 52.13 67.69 52.13 67.45"/><polygon class="cls-69" points="52.13 67.21 165.24 65.31 165.24 65.56 52.13 67.45 52.13 67.21"/><polygon class="cls-34" points="52.13 66.97 165.24 65.07 165.24 65.31 52.13 67.21 52.13 66.97"/><polygon class="cls-51" points="52.13 66.72 165.24 64.83 165.24 65.07 52.13 66.97 52.13 66.72"/><polygon class="cls-72" points="52.13 66.48 165.24 64.59 165.24 64.83 52.13 66.72 52.13 66.48"/><polygon class="cls-12" points="52.13 66.24 165.24 64.34 165.24 64.59 52.13 66.48 52.13 66.24"/><polygon class="cls-37" points="52.13 66 165.24 64.1 165.24 64.34 52.13 66.24 52.13 66"/><polygon class="cls-77" points="52.13 65.75 165.24 63.86 165.24 64.1 52.13 66 52.13 65.75"/><polygon class="cls-62" points="52.13 65.51 165.24 63.61 165.24 63.86 52.13 65.75 52.13 65.51"/><polygon class="cls-61" points="52.13 65.27 165.24 63.37 165.24 63.61 52.13 65.51 52.13 65.27"/><polygon class="cls-5" points="52.13 65.03 165.24 63.13 165.24 63.37 52.13 65.27 52.13 65.03"/><polygon class="cls-86" points="52.13 64.78 165.24 62.89 165.24 63.13 52.13 65.03 52.13 64.78"/><polygon class="cls-88" points="52.13 64.54 165.24 62.64 165.24 62.89 52.13 64.78 52.13 64.54"/><polygon class="cls-45" points="52.13 64.3 165.24 62.4 165.24 62.64 52.13 64.54 52.13 64.3"/><polygon class="cls-3" points="52.13 64.06 165.24 62.16 165.24 62.4 52.13 64.3 52.13 64.06"/><polygon class="cls-58" points="52.13 63.81 165.24 61.92 165.24 62.16 52.13 64.06 52.13 63.81"/><polygon class="cls-16" points="52.13 63.57 165.24 61.67 165.24 61.92 52.13 63.81 52.13 63.57"/><polygon class="cls-8" points="52.13 63.33 165.24 61.43 165.24 61.67 52.13 63.57 52.13 63.33"/><polygon class="cls-29" points="52.13 63.08 165.24 61.19 165.24 61.43 52.13 63.33 52.13 63.08"/><polygon class="cls-11" points="52.13 62.84 165.24 60.95 165.24 61.19 52.13 63.08 52.13 62.84"/><polygon class="cls-38" points="52.13 62.6 165.24 60.7 165.24 60.95 52.13 62.84 52.13 62.6"/><polygon class="cls-14" points="52.13 62.36 165.24 60.46 165.24 60.7 52.13 62.6 52.13 62.36"/><polygon class="cls-15" points="52.13 62.11 165.24 60.22 165.24 60.46 52.13 62.36 52.13 62.11"/><polygon class="cls-39" points="52.13 61.87 165.24 59.98 165.24 60.22 52.13 62.11 52.13 61.87"/><polygon class="cls-40" points="52.13 61.63 165.24 59.73 165.24 59.98 52.13 61.87 52.13 61.63"/><polygon class="cls-7" points="52.13 61.39 165.24 59.49 165.24 59.73 52.13 61.63 52.13 61.39"/><polygon class="cls-23" points="52.13 61.14 165.24 59.25 165.24 59.49 52.13 61.39 52.13 61.14"/><polygon class="cls-54" points="52.13 60.9 165.24 59.01 165.24 59.25 52.13 61.14 52.13 60.9"/><polygon class="cls-71" points="52.13 60.66 165.24 58.76 165.24 59.01 52.13 60.9 52.13 60.66"/><polygon class="cls-36" points="52.13 60.42 165.24 58.52 165.24 58.76 52.13 60.66 52.13 60.42"/><polygon class="cls-22" points="52.13 60.17 165.24 58.28 165.24 58.52 52.13 60.42 52.13 60.17"/><polygon class="cls-82" points="52.13 59.93 165.24 58.04 165.24 58.28 52.13 60.17 52.13 59.93"/><polygon class="cls-48" points="52.13 59.69 165.24 57.79 165.24 58.04 52.13 59.93 52.13 59.69"/><polygon class="cls-17" points="52.13 59.45 165.24 57.55 165.24 57.79 52.13 59.69 52.13 59.45"/><polygon class="cls-20" points="52.13 59.2 165.24 57.31 165.24 57.55 52.13 59.45 52.13 59.2"/><polygon class="cls-84" points="52.13 58.96 165.24 57.06 165.24 57.31 52.13 59.2 52.13 58.96"/><polygon class="cls-30" points="52.13 58.72 165.24 56.82 165.24 57.06 52.13 58.96 52.13 58.72"/><polygon class="cls-57" points="52.13 58.48 165.24 56.58 165.24 56.82 52.13 58.72 52.13 58.48"/><polygon class="cls-63" points="52.13 58.23 165.24 56.34 165.24 56.58 52.13 58.48 52.13 58.23"/><polygon class="cls-42" points="52.13 57.99 165.24 56.09 165.24 56.34 52.13 58.23 52.13 57.99"/><polygon class="cls-31" points="52.13 57.75 165.24 55.85 165.24 56.09 52.13 57.99 52.13 57.75"/><polygon class="cls-35" points="52.13 57.51 165.24 55.61 165.24 55.85 52.13 57.75 52.13 57.51"/><polygon class="cls-79" points="52.13 57.26 165.24 55.37 165.24 55.61 52.13 57.51 52.13 57.26"/><polygon class="cls-64" points="52.13 57.02 165.24 55.12 165.24 55.37 52.13 57.26 52.13 57.02"/><polygon class="cls-1" points="52.13 56.78 165.24 54.88 165.24 55.12 52.13 57.02 52.13 56.78"/><polygon class="cls-41" points="52.13 56.53 165.24 54.64 165.24 54.88 52.13 56.78 52.13 56.53"/><polygon class="cls-49" points="52.13 56.29 165.24 54.4 165.24 54.64 52.13 56.53 52.13 56.29"/><polygon class="cls-85" points="52.13 56.05 165.24 54.15 165.24 54.4 52.13 56.29 52.13 56.05"/><polygon class="cls-27" points="52.13 55.81 165.24 53.91 165.24 54.15 52.13 56.05 52.13 55.81"/><polygon class="cls-13" points="52.13 55.56 165.24 53.67 165.24 53.91 52.13 55.81 52.13 55.56"/><polygon class="cls-56" points="52.13 55.32 165.24 53.43 165.24 53.67 52.13 55.56 52.13 55.32"/><polygon class="cls-26" points="52.13 55.08 165.24 53.18 165.24 53.43 52.13 55.32 52.13 55.08"/><polygon class="cls-73" points="52.13 54.84 165.24 52.94 165.24 53.18 52.13 55.08 52.13 54.84"/><polygon class="cls-6" points="52.13 54.59 165.24 52.7 165.24 52.94 52.13 54.84 52.13 54.59"/><polygon class="cls-68" points="52.13 54.35 165.24 52.46 165.24 52.7 52.13 54.59 52.13 54.35"/><polygon class="cls-60" points="52.13 54.11 165.24 52.21 165.24 52.46 52.13 54.35 52.13 54.11"/><polygon class="cls-60" points="52.13 53.87 165.24 51.97 165.24 52.21 52.13 54.11 52.13 53.87"/><polygon class="cls-65" points="52.13 53.62 165.24 51.73 165.24 51.97 52.13 53.87 52.13 53.62"/><polygon class="cls-59" points="52.13 53.38 165.24 51.48 165.24 51.73 52.13 53.62 52.13 53.38"/><polygon class="cls-24" points="52.13 53.14 165.24 51.24 165.24 51.48 52.13 53.38 52.13 53.14"/><polygon class="cls-10" points="52.13 52.9 165.24 51 165.24 51.24 52.13 53.14 52.13 52.9"/><polygon class="cls-74" points="52.13 52.65 165.24 50.76 165.24 51 52.13 52.9 52.13 52.65"/><polygon class="cls-74" points="52.13 52.41 165.24 50.51 165.24 50.76 52.13 52.65 52.13 52.41"/><polygon class="cls-53" points="52.13 52.17 165.24 50.27 165.24 50.51 52.13 52.41 52.13 52.17"/><polygon class="cls-53" points="52.13 51.93 165.24 50.03 165.24 50.27 52.13 52.17 52.13 51.93"/><polygon class="cls-46" points="52.13 51.68 165.24 49.79 165.24 50.03 52.13 51.93 52.13 51.68"/><polygon class="cls-52" points="52.13 51.44 165.24 49.54 165.24 49.79 52.13 51.68 52.13 51.44"/><polygon class="cls-52" points="52.13 51.2 165.24 49.3 165.24 49.54 52.13 51.44 52.13 51.2"/><polygon class="cls-87" points="52.13 50.96 165.24 49.06 165.24 49.3 52.13 51.2 52.13 50.96"/><polygon class="cls-87" points="52.13 50.71 165.24 48.82 165.24 49.06 52.13 50.96 52.13 50.71"/><polygon class="cls-87" points="52.13 50.47 165.24 48.57 165.24 48.82 52.13 50.71 52.13 50.47"/><polygon class="cls-87" points="52.13 50.23 165.24 48.33 165.24 48.57 52.13 50.47 52.13 50.23"/><polygon class="cls-18" points="52.13 49.98 165.24 48.09 165.24 48.33 52.13 50.23 52.13 49.98"/><polygon class="cls-18" points="52.13 49.74 154.86 48.02 165.24 48.02 165.24 48.09 52.13 49.98 52.13 49.74"/><polygon class="cls-18" points="52.13 49.5 140.39 48.02 154.86 48.02 52.13 49.74 52.13 49.5"/><polygon class="cls-18" points="52.13 49.26 125.92 48.02 140.39 48.02 52.13 49.5 52.13 49.26"/><polygon class="cls-18" points="52.13 49.01 111.45 48.02 125.92 48.02 52.13 49.26 52.13 49.01"/><polygon class="cls-19" points="52.13 48.77 96.98 48.02 111.45 48.02 52.13 49.01 52.13 48.77"/><polygon class="cls-19" points="52.13 48.53 82.51 48.02 96.98 48.02 52.13 48.77 52.13 48.53"/><polygon class="cls-19" points="52.13 48.29 68.04 48.02 82.51 48.02 52.13 48.53 52.13 48.29"/><polygon class="cls-19" points="52.13 48.04 53.57 48.02 68.04 48.02 52.13 48.29 52.13 48.04"/><polygon class="cls-19" points="53.57 48.02 52.13 48.04 52.13 48.02 53.57 48.02"/></g></g><path class="cls-67" d="M157.88,55.34s-1.47-.02-.99,1.92,1.6,3.79,1.38,5.29c-.22,1.5-.19,1.33,1.03,2.51s2.63,2.84,3.33,.73,1.14-2.71,.42-4.46c-.72-1.75-1.76-2.63-2.09-3.33s-1.15-2.56-3.08-2.66Z"/><polygon class="cls-33" points="129.17 60.77 124.78 64.13 119.34 71.23 111.39 77.42 107.16 86.39 107.69 97.81 108.67 106.58 105.04 113.23 105.04 122.06 115.34 127.04 117.82 109.81 117.82 105.29 119.19 102.71 117.82 91.23 123.12 79.61 123.12 75.35 127.51 69.42 129.17 60.77"/><polygon class="cls-33" points="77.05 139.03 75.66 135.81 79.99 123.9 85.23 111.61 86.54 100.39 85.53 95.06 77.37 83.84 74.65 76.66 77.69 73.03 85.75 70.48 93.75 63.74 105.87 69.62 107.51 78.48 108.32 81.14 108.48 81.99 104.76 86.13 104.22 92.13 104.08 94.32 101.94 113.23 101.14 114.52 101.14 116.84 99.32 116.84 96.97 125.1 95.43 140.58 83.75 135.03 77.05 139.03"/><polygon class="cls-4" points="161 57.91 155.45 54.84 149.13 45.94 125.9 30.84 107.04 11.29 77.13 9.29 73.77 8.18 62.29 12.39 67.58 7 73.13 2.45 91.19 .77 98.29 0 106.29 0 122.68 6.45 136.35 26.97 150.03 41.81 158.68 51.1 161 57.91"/></g></g></g></g></svg>